<?xml version="1.0" standalone="no"?>
<!DOCTYPE svg PUBLIC "-//W3C//DTD SVG 20010904//EN"
 "http://www.w3.org/TR/2001/REC-SVG-20010904/DTD/svg10.dtd">
<svg version="1.0" xmlns="http://www.w3.org/2000/svg"
 width="256.000000pt" height="256.000000pt" viewBox="0 0 256.000000 256.000000"
 preserveAspectRatio="xMidYMid meet">
<metadata>
Created by potrace 1.16, written by Peter Selinger 2001-2019
</metadata>
<g transform="translate(0.000000,256.000000) scale(0.100000,-0.100000)"
fill="#f2994a" stroke="none">
<path d="M1145 2466 c-29 -13 -52 -33 -54 -48 -3 -20 -39 -67 -46 -60 -4 4 -4
-4 0 -17 5 -16 4 -21 -4 -17 -7 5 -11 -6 -11 -34 0 -25 4 -39 10 -35 6 3 10
-1 10 -10 0 -9 -4 -13 -10 -10 -11 7 -25 -39 -15 -54 3 -6 1 -11 -5 -11 -17 0
-7 -55 10 -55 8 0 20 -4 27 -8 17 -11 34 53 19 74 -6 8 3 0 21 -19 17 -19 36
-32 40 -29 5 3 7 -10 5 -29 -3 -23 -9 -34 -21 -34 -14 0 -14 -2 -1 -10 8 -5
24 -10 35 -10 17 0 18 2 5 10 -14 10 117 8 187 -2 30 -4 40 -17 23 -28 -13 -8
-12 -10 3 -10 12 0 17 -8 17 -31 0 -31 -1 -31 -24 -16 -21 14 -25 14 -39 -1
-16 -15 -18 -15 -30 2 -13 18 -14 18 -21 0 -7 -18 -8 -18 -20 -1 -12 15 -15
15 -26 2 -16 -19 -40 -19 -40 0 0 8 -4 15 -10 15 -5 0 -10 -7 -10 -15 0 -20
-10 -19 -26 3 -13 16 -13 16 -14 0 0 -22 -18 -24 -26 -3 -6 14 -8 13 -20 -2
-12 -17 -13 -16 -14 9 0 31 -9 58 -20 58 -4 0 -3 -17 3 -38 14 -51 5 -72 -30
-71 l-28 1 25 7 c14 4 26 15 28 24 3 15 -1 17 -24 11 -27 -7 -27 -7 -20 35 4
24 2 41 -3 41 -6 0 -13 -17 -16 -37 -4 -21 -7 -42 -8 -46 -1 -4 -12 1 -24 13
-14 12 -20 27 -17 38 5 14 4 15 -5 2 -17 -23 -14 -90 4 -91 8 -1 20 -3 25 -4
6 -1 16 -4 23 -5 6 -1 1 -6 -13 -10 -22 -7 -21 -8 13 -9 22 -1 36 -5 32 -11
-3 -5 7 -8 25 -5 31 4 40 -11 20 -31 -6 -6 -12 -28 -14 -50 -3 -21 -7 -46 -11
-55 -8 -21 12 -135 31 -170 7 -15 27 -42 44 -60 27 -31 30 -40 30 -104 0 -91
-25 -241 -46 -281 -24 -44 -50 -58 -124 -65 l-65 -6 60 -1 c40 -2 71 -9 93
-22 36 -22 46 -25 37 -10 -3 6 -2 10 4 10 13 0 7 33 -7 38 -7 2 -9 -5 -7 -17
2 -12 1 -21 -3 -21 -12 1 -46 30 -35 30 6 0 25 12 42 26 21 17 29 20 25 10 -4
-9 -3 -16 2 -15 23 4 25 -3 8 -23 -15 -17 -16 -20 -3 -16 9 4 16 1 16 -7 0 -7
-6 -11 -13 -8 -7 3 -11 -2 -10 -12 7 -45 93 -47 100 -3 1 9 8 24 16 33 11 13
11 18 1 24 -9 6 -8 11 4 21 13 11 13 15 3 22 -10 6 -10 10 2 18 10 6 11 10 3
10 -8 0 -11 9 -9 23 2 12 -1 28 -6 35 -7 8 -6 12 3 12 11 0 11 2 -1 10 -12 8
-12 10 -1 10 11 0 11 3 1 15 -10 12 -10 15 1 15 9 1 8 5 -5 15 -19 14 -19 15
-1 15 18 0 18 1 -1 15 -17 13 -17 14 -1 15 18 0 24 20 6 20 -8 0 -8 5 1 15 10
12 9 15 -6 15 -18 1 -18 1 -2 11 30 17 56 -10 68 -71 17 -86 37 -173 45 -195
4 -13 4 -16 -2 -7 -7 10 -14 7 -28 -10 -11 -13 -13 -17 -5 -10 19 17 27 15 27
-5 0 -18 -35 -50 -50 -45 -5 1 -6 -2 -2 -8 3 -6 11 -8 16 -5 5 4 9 -2 9 -12 1
-17 1 -17 11 0 6 9 14 15 19 12 5 -3 24 4 42 15 19 12 26 20 17 20 -9 0 -22
-7 -29 -15 -7 -8 -18 -15 -24 -15 -6 0 0 9 13 19 l24 19 -22 7 c-15 5 -20 10
-13 17 7 7 21 2 42 -13 42 -32 156 -34 210 -4 19 10 40 19 45 19 6 1 11 6 13
11 2 6 9 17 17 25 18 21 45 76 45 92 0 7 -9 -5 -19 -27 -35 -77 -122 -135
-205 -135 -25 0 -27 3 -21 23 13 40 9 160 -8 190 -9 18 -17 23 -19 15 -3 -7
-13 -13 -24 -13 -17 0 -19 -6 -15 -65 1 -36 8 -68 15 -72 8 -6 7 -8 -3 -8 -8
0 -11 -6 -7 -16 4 -11 1 -14 -11 -12 -24 5 -52 57 -62 119 -25 145 -22 156 23
88 22 -33 30 -38 42 -28 22 18 17 39 -10 39 -14 0 -27 4 -30 9 -4 5 3 7 14 4
28 -7 25 7 -11 46 -28 32 -29 33 -7 28 23 -6 23 -6 -2 13 -14 11 -28 20 -32
20 -5 0 -8 97 -8 215 0 165 3 215 13 216 6 0 4 4 -6 8 -14 5 -9 9 23 17 22 6
40 7 40 3 0 -5 -7 -9 -16 -9 -13 0 -14 -3 -5 -13 6 -8 8 -17 4 -20 -3 -4 3 -7
15 -7 24 0 30 15 10 24 -7 3 -1 4 13 1 15 -3 40 2 55 10 26 13 27 15 7 15 -12
0 -24 6 -26 13 -4 9 -6 9 -6 -1 -1 -10 -5 -9 -17 3 -13 13 -16 29 -11 75 4 49
2 60 -11 63 -12 3 -11 5 4 6 25 1 45 -20 50 -52 2 -12 6 -33 9 -47 5 -18 4
-21 -3 -11 -8 11 -10 11 -15 0 -4 -10 -6 -10 -6 -1 -1 17 -21 15 -21 -3 0 -8
9 -15 20 -15 11 0 20 -4 20 -8 0 -4 9 -8 20 -8 11 0 20 4 20 8 0 4 7 5 16 1
13 -5 13 -7 2 -14 -10 -7 -10 -9 0 -9 19 0 26 28 14 54 -8 18 -16 22 -37 18
-19 -3 -26 -1 -25 9 5 36 -2 56 -29 74 -31 20 -53 79 -44 115 4 14 0 20 -10
20 -9 0 -18 4 -21 9 -4 5 3 7 14 4 23 -6 28 15 5 23 -11 4 -13 13 -9 28 6 19
5 19 -10 7 -19 -16 -26 -12 -29 18 -1 14 -5 17 -11 11 -17 -17 -27 -11 -16 9
15 28 14 31 -25 47 -43 18 -73 18 -107 0 -20 -10 -28 -11 -31 -3 -2 7 -9 -5
-16 -25 -10 -29 -10 -46 -1 -73 16 -48 8 -64 -15 -29 -23 35 -26 110 -5 150
16 31 48 64 62 64 4 0 8 7 8 15 0 8 6 12 14 9 8 -3 17 -1 21 5 9 15 -23 13
-60 -3z m132 -608 c4 -7 10 -102 13 -210 5 -182 4 -197 -13 -202 -9 -2 -15 0
-11 5 3 5 -1 9 -8 10 -7 0 -4 5 7 10 16 8 14 9 -11 5 -24 -4 -35 1 -55 25 -13
16 -28 29 -32 29 -5 0 -15 7 -23 15 -14 13 -13 15 4 15 26 0 79 -46 61 -53 -9
-3 -6 -6 7 -6 22 -1 29 28 10 42 -7 5 -5 11 8 18 15 9 16 13 5 21 -11 7 -11
11 -1 15 18 7 15 23 -5 23 -15 0 -14 2 3 15 19 14 19 14 -1 15 -20 1 -20 1 0
12 19 11 19 11 0 19 -20 7 -20 8 0 8 17 1 18 3 5 12 -12 8 -12 12 -2 16 10 4
10 8 1 20 -10 11 -10 16 0 23 10 6 10 9 1 15 -9 6 -9 10 1 16 12 8 11 11 -1
20 -12 9 -13 12 -1 16 10 4 11 7 1 13 -15 9 -5 30 15 30 8 0 17 -6 22 -12z"/>
<path d="M1685 1535 c3 -61 2 -70 -4 -35 l-8 45 -1 -42 c-1 -23 2 -44 7 -47 5
-4 8 -18 6 -34 -2 -15 -6 -49 -9 -76 -6 -55 -13 -67 -26 -46 -8 12 -10 12 -10
-4 0 -15 6 -17 34 -14 32 4 35 2 41 -29 6 -33 -11 -79 -44 -117 -15 -17 -15
-18 4 -15 22 5 63 61 71 98 3 14 8 33 10 41 10 28 12 157 3 130 -7 -20 -8 -18
-4 13 2 22 -1 37 -7 37 -5 0 -8 7 -4 15 3 8 1 15 -5 15 -5 0 -9 6 -8 13 1 6
-3 25 -9 40 -7 16 -12 34 -12 41 0 7 -6 21 -14 32 -13 17 -14 10 -11 -61z"/>
<path d="M733 1573 c-10 -16 -20 -30 -23 -33 -8 -8 -68 -133 -76 -160 -4 -14
-7 -32 -5 -41 1 -9 -5 -19 -14 -22 -19 -8 -19 -12 5 58 11 32 18 60 16 62 -5
5 -66 -122 -66 -137 0 -13 16 -13 39 0 17 9 18 5 14 -53 -10 -117 43 -228 136
-285 20 -12 92 -40 161 -62 168 -54 161 -47 125 -110 -14 -25 -21 -80 -8 -67
3 4 12 -1 19 -11 9 -11 13 -13 14 -4 0 7 5 10 10 7 6 -3 14 4 20 17 5 13 18
34 28 46 l19 24 28 -34 c15 -18 34 -46 41 -63 7 -16 13 -24 14 -16 0 8 14 36
31 62 46 73 114 109 300 162 206 59 267 133 273 329 1 57 1 95 -2 85 -4 -18
-5 -18 -23 -1 -18 17 -19 16 -19 -17 0 -19 -3 -51 -6 -71 -5 -28 -10 -35 -23
-30 -13 5 -14 3 -4 -9 9 -11 8 -21 -1 -44 -16 -36 -84 -107 -97 -99 -5 3 -9 1
-9 -5 0 -12 -96 -44 -110 -36 -5 3 -10 1 -10 -6 0 -8 -10 -9 -30 -5 -21 4 -29
2 -24 -5 4 -7 -12 -9 -52 -5 -40 4 -53 3 -39 -3 15 -7 3 -10 -47 -10 -57 -1
-69 -4 -82 -23 -9 -12 -16 -36 -17 -53 0 -26 -2 -27 -9 -10 -5 11 -11 32 -14
47 -7 31 -17 34 -151 43 -49 4 -94 10 -100 13 -5 3 -22 7 -37 9 -43 4 -104 39
-151 85 -23 23 -35 38 -27 34 9 -5 9 -2 -2 7 -14 11 -15 16 -5 26 9 10 8 11
-8 5 -18 -7 -18 -6 -6 9 12 15 11 17 -3 17 -12 0 -15 6 -10 25 4 17 2 25 -6
25 -16 0 -4 181 12 191 6 4 8 15 4 24 -8 21 14 111 24 95 4 -6 7 2 6 19 -1 17
-2 31 -3 31 -2 0 -10 -12 -20 -27z m-64 -249 c-13 -69 -6 -154 16 -207 19 -45
95 -127 119 -127 9 0 16 -4 16 -10 0 -5 12 -10 26 -10 16 0 23 -4 18 -11 -5
-8 3 -10 24 -7 19 3 29 1 25 -6 -4 -5 1 -7 10 -3 10 3 17 2 17 -2 0 -5 9 -7
20 -4 11 3 20 0 20 -6 0 -5 7 -8 15 -5 8 4 15 1 15 -5 0 -9 5 -9 22 0 18 10
20 9 15 -4 -4 -11 -2 -14 9 -10 7 3 14 0 14 -6 0 -6 7 -8 17 -4 12 5 14 3 8
-7 -6 -10 -4 -12 8 -7 10 3 17 2 17 -4 0 -6 5 -7 10 -4 6 3 10 -2 11 -12 0
-16 1 -16 9 2 8 19 9 19 9 -3 1 -13 5 -20 11 -17 6 3 10 -3 10 -15 0 -12 4
-19 9 -16 5 3 12 -5 15 -18 3 -13 9 -32 12 -43 3 -10 -3 -4 -14 13 -11 17 -33
41 -48 53 -44 35 -163 88 -225 100 -180 37 -279 151 -279 323 0 55 18 153 26
145 2 -2 -1 -30 -7 -63z"/>
<path d="M200 670 c0 -5 -7 -7 -15 -3 -20 7 -55 -24 -55 -49 0 -10 10 -23 23
-28 28 -11 64 24 47 46 -9 10 -7 11 9 7 12 -3 21 -8 21 -12 0 -4 9 -7 20 -8
11 -1 18 2 15 7 -3 5 4 8 15 7 24 -2 55 -32 65 -64 10 -34 -17 -29 -48 8 -14
17 -28 30 -31 30 -3 -1 -7 -1 -8 0 -41 12 -56 -1 -26 -22 41 -27 58 -49 58
-74 0 -17 -6 -25 -17 -26 -12 0 -13 -2 -5 -6 7 -3 24 -2 37 1 17 4 23 11 19
24 -5 14 -4 15 5 2 15 -21 14 -30 -4 -30 -19 0 -21 -60 -3 -78 9 -9 8 -12 -8
-12 -25 0 -80 36 -63 42 18 6 20 36 3 42 -22 9 -28 -20 -14 -70 10 -34 10 -48
1 -57 -16 -16 -14 -37 7 -61 16 -20 16 -20 -2 -6 -17 13 -19 13 -15 0 7 -22
88 -60 126 -60 51 0 77 32 69 86 -6 46 3 54 52 46 18 -4 21 -7 10 -14 -9 -7
-7 -8 10 -5 12 3 20 1 17 -3 -3 -5 -1 -11 5 -15 6 -4 9 7 8 28 -2 19 -6 33
-10 30 -5 -2 -8 0 -8 5 0 5 -14 6 -31 4 -22 -3 -34 0 -40 10 -6 10 -18 14 -35
10 -27 -5 -27 -4 -22 42 4 32 2 44 -4 38 -6 -6 -8 -29 -6 -52 3 -36 1 -41 -17
-38 -28 4 -30 38 -6 94 12 26 21 63 21 83 0 37 -23 81 -42 81 -6 0 -5 -7 3
-17 11 -16 11 -16 -1 -5 -8 7 -15 18 -15 25 0 6 -11 14 -25 18 -38 11 -90 10
-90 -1z"/>
<path d="M2173 673 c-12 -2 -36 -17 -53 -33 -37 -34 -41 -92 -10 -142 11 -18
20 -44 21 -58 1 -17 3 -19 6 -7 2 9 9 15 14 12 5 -4 9 3 9 13 0 11 -9 22 -20
25 -11 3 -20 13 -20 23 0 16 2 15 20 -4 12 -12 31 -21 43 -21 17 1 18 2 5 6
-39 10 -3 93 39 93 8 0 11 5 7 12 -5 7 -3 8 6 3 10 -6 11 -2 6 19 -4 18 -2 26
6 26 10 0 10 2 0 9 -11 7 -10 9 3 14 9 4 13 3 10 -2 -3 -6 3 -15 12 -21 17
-11 17 -11 0 -6 -15 5 -18 1 -15 -16 4 -32 38 -37 38 -6 0 18 2 20 9 9 7 -10
3 -23 -10 -39 -13 -17 -16 -29 -9 -37 11 -13 4 -25 -14 -25 -7 0 -13 11 -14
25 -1 14 3 25 9 25 5 0 7 5 4 10 -3 6 -11 10 -17 10 -6 0 -8 -3 -5 -7 4 -3 0
-15 -9 -25 -14 -15 -15 -20 -4 -33 8 -9 25 -15 39 -13 20 2 27 9 29 33 2 16
10 37 17 48 38 55 -48 100 -152 80z"/>
<path d="M1060 595 c-94 -16 -173 -37 -313 -82 -87 -28 -111 -33 -118 -22 -8
14 -24 5 -24 -14 0 -6 -13 -14 -29 -18 -25 -7 -27 -5 -23 12 4 14 0 19 -14 19
-12 0 -19 -7 -19 -19 0 -11 -6 -22 -12 -25 -27 -13 92 5 124 18 18 8 47 16 63
19 17 3 57 15 90 27 58 20 134 41 165 44 9 1 20 5 25 8 28 17 291 43 321 31
33 -12 8 -18 -88 -20 -142 -4 -236 -22 -458 -90 -47 -14 -92 -27 -100 -27 -9
-1 -21 -6 -28 -10 -8 -4 -40 -10 -73 -13 -59 -6 -59 -6 -59 21 0 22 7 30 37
43 21 9 49 15 63 14 21 -2 23 0 12 11 -8 8 -39 13 -81 14 -38 1 -75 5 -82 9
-7 5 -10 4 -5 -3 6 -10 -8 -25 -26 -28 -5 -1 -10 -2 -12 -3 -2 0 0 -17 4 -36
4 -20 4 -35 -1 -35 -5 0 -9 -5 -9 -11 0 -8 5 -7 16 2 14 11 18 10 30 -6 8 -10
14 -14 14 -7 0 6 -10 18 -22 26 -20 14 -18 21 5 17 4 0 7 8 7 18 0 19 19 32
48 30 11 0 12 -2 5 -6 -14 -5 -16 -34 -7 -80 5 -26 10 -30 37 -27 18 1 55 9
82 18 273 84 351 106 388 109 24 2 49 7 55 11 6 3 59 8 119 10 77 3 91 2 48
-3 l-60 -8 73 -1 c42 -1 71 2 68 7 -7 11 34 2 51 -12 7 -5 19 -7 27 -4 8 3 27
2 43 -3 76 -24 254 -61 264 -54 7 4 9 3 5 -4 -7 -12 48 -27 64 -17 5 3 10 1
10 -6 0 -7 3 -10 6 -7 3 4 20 2 37 -3 55 -17 71 -21 120 -26 64 -8 62 13 -3
22 -27 4 -53 11 -56 16 -3 5 -9 7 -14 4 -5 -3 -11 -1 -15 5 -3 5 1 10 9 10 20
0 21 36 1 44 -9 3 -15 0 -15 -9 0 -19 -6 -19 -76 6 -282 98 -500 127 -694 94z"/>
<path d="M935 430 c-3 -5 -12 -7 -19 -4 -8 3 -30 -2 -51 -10 -21 -9 -46 -16
-57 -16 -24 0 -34 -26 -18 -45 12 -14 7 -20 -14 -16 -5 1 -12 -3 -16 -9 -5 -7
-9 -4 -13 9 -3 14 0 21 9 21 8 0 14 5 14 10 0 13 -26 13 -51 0 -18 -10 -18
-12 -3 -35 9 -14 12 -25 6 -25 -5 0 -16 10 -24 22 -13 20 -18 21 -45 9 -30
-12 -30 -12 -14 -45 l16 -32 65 29 c36 17 78 33 95 36 37 8 45 38 13 50 -14 6
-17 10 -8 11 8 1 23 3 32 5 17 3 32 -20 22 -36 -3 -5 4 -9 15 -9 17 0 20 5 15
30 -5 23 -3 30 9 30 8 0 17 -9 20 -20 3 -13 14 -20 30 -20 31 0 41 13 33 46
-5 17 -13 24 -31 24 -13 0 -26 -4 -30 -10z"/>
<path d="M2130 401 c0 -10 -11 -12 -46 -8 -29 3 -41 1 -33 -4 8 -5 24 -9 37
-9 12 0 22 -4 22 -10 0 -12 -35 -13 -58 -1 -9 4 -36 11 -58 14 -41 5 -42 4
-53 -33 -14 -48 -14 -58 2 -38 6 9 28 21 47 26 28 8 30 10 11 11 -13 1 -22 4
-18 7 7 8 107 -15 124 -28 7 -6 14 -5 18 2 4 6 13 9 20 6 7 -2 18 1 24 7 8 8
11 8 11 -2 0 -7 6 -11 15 -8 8 4 17 1 21 -6 4 -7 3 -9 -1 -4 -5 4 -19 -3 -32
-15 -21 -20 -23 -20 -17 -4 5 13 4 17 -3 13 -6 -4 -13 -2 -15 4 -2 7 -16 4
-38 -10 -35 -21 -29 -27 20 -22 13 2 13 1 0 -8 -37 -25 -80 -6 -80 36 0 39
-16 25 -18 -17 -3 -50 24 -81 71 -78 l32 1 -32 4 c-17 2 -37 11 -45 20 -11 14
-10 15 10 9 12 -3 31 -9 42 -12 11 -3 25 -2 32 3 7 4 19 8 27 9 7 2 23 11 35
21 12 10 9 5 -7 -10 -15 -15 -32 -25 -37 -22 -5 3 -11 1 -15 -5 -10 -17 18
-11 53 10 43 26 48 44 28 87 -9 19 -14 43 -11 53 6 19 -1 20 -44 6 -16 -6 -26
-4 -32 5 -7 12 -9 12 -9 0z"/>
<path d="M1170 299 c-32 -8 -161 -31 -249 -44 -19 -3 -55 -10 -80 -16 -25 -6
-66 -12 -91 -15 -25 -2 -65 -6 -89 -10 -31 -4 -55 -1 -81 11 -31 14 -36 21
-35 45 1 16 -2 27 -7 24 -4 -3 -8 -21 -8 -40 0 -39 37 -84 67 -83 15 0 14 2
-4 11 -30 15 -30 31 0 17 20 -9 192 9 361 37 23 4 27 3 16 -5 -8 -5 -40 -13
-70 -17 -30 -3 -86 -12 -123 -20 -38 -8 -83 -15 -100 -15 -24 -1 -26 -3 -9 -6
12 -2 113 10 225 28 254 41 405 43 612 10 348 -56 390 -57 413 -5 17 35 15 51
-5 59 -15 5 -16 4 -5 -6 19 -20 15 -26 -23 -39 -35 -11 -129 -4 -120 9 2 4
-16 7 -40 6 -25 0 -41 3 -38 9 4 5 -1 7 -9 3 -9 -3 -26 2 -39 11 -21 15 -22
14 -16 -3 6 -15 5 -16 -8 -5 -8 7 -13 16 -10 20 3 5 0 12 -6 16 -8 4 -9 3 -5
-4 4 -7 2 -12 -4 -12 -6 0 -8 -4 -5 -10 3 -5 1 -10 -4 -10 -6 0 -11 5 -11 11
0 7 -10 9 -25 7 -14 -3 -25 -1 -25 3 0 5 -11 9 -24 9 -14 0 -28 5 -31 10 -5 8
-11 8 -19 1 -7 -6 -15 -9 -17 -7 -2 2 -17 6 -32 10 -21 5 -27 4 -21 -5 5 -9 2
-10 -12 -4 -57 23 -135 29 -194 14z"/>
</g>
</svg>
