<svg version="1.1" id="Layer_1" xmlns="http://www.w3.org/2000/svg" xmlns:xlink="http://www.w3.org/1999/xlink" x="0px" y="0px"
	 width="100%" viewBox="0 0 256 256" enable-background="new 0 0 256 256" xml:space="preserve">
<path fill="none" opacity="1.000000" stroke="#000000" stroke-linecap="round" stroke-linejoin="round" stroke-width="3.000000"
	d="
M69.000000,114.500000 
	C67.734161,115.759720 66.831444,116.953003 66.353477,118.965195 
	C64.325233,127.503929 63.492474,135.979080 66.024147,144.492813 
	C69.512810,156.224854 78.425697,161.943741 89.510498,164.961441 
	C94.913948,166.432449 100.343712,167.755020 105.505142,169.988113 
	C108.445068,171.260056 110.943497,172.829865 111.000000,176.500000 
"/>
<path fill="none" opacity="1.000000" stroke="#000000" stroke-linecap="round" stroke-linejoin="round" stroke-width="3.000000"
	d="
M128.000000,67.000000 
	C130.501389,69.692543 131.010269,72.946190 131.039886,76.499664 
	C131.145447,89.166649 130.515076,101.844101 131.493484,114.541946 
	C133.166672,113.231003 134.833328,114.640793 136.500000,114.500000 
"/>
<path fill="none" opacity="1.000000" stroke="#000000" stroke-linecap="round" stroke-linejoin="round" stroke-width="3.000000"
	d="
M180.500000,123.500000 
	C184.031509,133.611786 181.549591,142.758560 175.406860,150.929977 
	C172.242126,155.139908 170.296448,160.699844 164.019562,162.088425 
	C159.254257,163.142593 154.728775,165.246613 149.985214,166.441269 
	C143.143433,168.164337 137.098511,171.332123 131.500000,175.500000 
"/>
<path fill="none" opacity="1.000000" stroke="#000000" stroke-linecap="round" stroke-linejoin="round" stroke-width="3.000000"
	d="
M129.000000,201.000000 
	C121.065788,199.919586 113.297905,201.293961 105.496513,202.477005 
	C89.518814,204.900009 74.401436,210.473557 59.019844,215.066452 
	C56.688351,215.762634 54.043800,214.648849 52.000000,216.500000 
"/>
<path fill="none" opacity="1.000000" stroke="#000000" stroke-linecap="round" stroke-linejoin="round" stroke-width="3.000000"
	d="
M155.500000,231.500000 
	C156.007202,233.842346 154.258255,233.873550 153.021637,233.438507 
	C147.801590,231.602051 142.160782,232.424606 137.079453,231.176514 
	C131.880981,229.899643 126.941452,231.116226 122.016197,230.390137 
	C113.660126,229.158295 105.620239,230.656982 97.497932,231.987381 
	C87.006416,233.705841 76.498833,235.326019 66.000580,237.003647 
	C61.871601,237.663452 58.614830,235.087662 55.084274,233.773575 
	C54.338547,233.496017 54.666664,230.333328 54.500000,228.500000 
"/>
<path fill="none" opacity="1.000000" stroke="#000000" stroke-linecap="round" stroke-linejoin="round" stroke-width="7.000000"
	d="
M118.500000,203.500000 
	C122.710762,202.887161 126.793732,204.147186 131.202271,201.314835 
	C135.738846,198.400208 141.759155,200.943939 146.986908,202.061264 
	C160.323349,204.911667 173.038696,209.874222 186.000000,214.000000 
"/>
<path fill="none" opacity="1.000000" stroke="#000000" stroke-linecap="round" stroke-linejoin="round" stroke-width="3.000000"
	d="
M117.000000,110.500000 
	C116.833328,110.833328 116.540680,111.158463 116.518372,111.501198 
	C115.908012,120.877243 115.588791,130.274475 113.602814,139.522079 
	C113.351135,140.693985 114.500000,142.166672 115.000000,143.500000 
"/>
<path fill="none" opacity="1.000000" stroke="#000000" stroke-linecap="round" stroke-linejoin="round" stroke-width="3.000000"
	d="
M115.000000,71.500000 
	C116.982292,74.493095 115.814522,77.833908 115.943329,81.002304 
	C116.153252,86.165810 116.000000,91.344086 116.000000,96.466591 
	C113.666664,97.776070 111.833336,94.850441 110.000000,96.500000 
"/>
<path fill="none" opacity="1.000000" stroke="#000000" stroke-linecap="round" stroke-linejoin="round" stroke-width="3.000000"
	d="
M131.500000,118.500000 
	C129.320770,122.273300 131.854431,125.889275 132.218277,129.477875 
	C132.910385,136.303940 133.477905,143.556961 139.500000,148.500000 
"/>
<path fill="none" opacity="1.000000" stroke="#000000" stroke-linecap="round" stroke-linejoin="round" stroke-width="2.000000"
	d="
M134.000000,198.500000 
	C127.768288,194.512283 120.931061,196.472839 114.517181,197.160309 
	C99.192810,198.802856 84.414574,203.040771 69.986717,208.464661 
	C69.256569,208.739151 68.333336,208.500000 67.500000,208.500000 
"/>
<path fill="none" opacity="1.000000" stroke="#000000" stroke-linecap="round" stroke-linejoin="round" stroke-width="6.000000"
	d="
M75.500000,98.500000 
	C74.333328,101.333336 73.061935,104.129028 72.026726,107.009605 
	C70.755768,110.546158 68.450607,113.752121 70.360161,118.061958 
	C71.661819,120.999794 69.702362,124.327652 69.343170,127.482140 
	C67.389381,144.641098 78.408081,156.386932 94.000931,159.495316 
	C100.828728,160.856430 107.631996,162.412827 114.516548,163.382538 
	C117.391777,163.787521 118.613083,164.971893 119.571259,167.472702 
	C120.533615,169.984406 121.575722,172.672760 124.500000,173.750000 
"/>
<path fill="none" opacity="1.000000" stroke="#000000" stroke-linecap="round" stroke-linejoin="round" stroke-width="3.000000"
	d="
M179.500000,105.500000 
	C182.637497,110.710228 185.688889,115.926147 187.085953,121.980164 
	C187.538193,123.939903 189.000000,125.666672 190.000000,127.500000 
"/>
<path fill="none" opacity="1.000000" stroke="#000000" stroke-linecap="round" stroke-linejoin="round" stroke-width="5.000000"
	d="
M172.000000,154.000000 
	C167.182541,152.288376 163.608185,155.939468 159.546707,157.155945 
	C151.455017,159.579575 143.308380,161.684891 134.983398,162.884872 
	C131.146515,163.437927 129.307495,165.616257 127.469772,168.480606 
	C123.502678,174.663910 123.486656,181.563995 123.500000,188.500000 
"/>
<path fill="none" opacity="1.000000" stroke="#000000" stroke-linecap="round" stroke-linejoin="round" stroke-width="2.000000"
	d="
M162.000000,236.000000 
	C163.736343,239.124313 167.089111,237.430252 169.584473,238.239532 
	C173.603210,239.542892 178.166672,239.166656 182.500000,239.500000 
"/>
<path fill="none" opacity="1.000000" stroke="#000000" stroke-linecap="round" stroke-linejoin="round" stroke-width="4.000000"
	d="
M169.500000,96.500000 
	C171.692764,101.435806 172.204742,106.833435 172.303940,112.003761 
	C172.431015,118.626411 174.050842,124.990936 174.415833,131.504715 
	C174.747070,137.415695 171.604553,141.666901 166.500000,144.500000 
"/>
<path fill="none" opacity="1.000000" stroke="#000000" stroke-linecap="round" stroke-linejoin="round" stroke-width="2.000000"
	d="
M116.000000,232.000000 
	C112.731949,234.859039 108.637924,233.217575 104.973251,233.843384 
	C98.855598,234.888062 92.795021,236.616486 86.500000,236.500000 
"/>
<path fill="none" opacity="1.000000" stroke="#000000" stroke-linecap="round" stroke-linejoin="round" stroke-width="3.000000"
	d="
M214.000000,222.000000 
	C210.568848,222.152100 207.237244,221.923080 203.980194,220.546890 
	C201.137146,219.345642 198.378738,219.503586 196.500000,222.500000 
"/>
<path fill="none" opacity="1.000000" stroke="#000000" stroke-linecap="round" stroke-linejoin="round" stroke-width="2.000000"
	d="
M63.500004,115.500000 
	C62.129143,119.153099 60.758282,122.806206 59.410774,126.397072 
	C61.181610,126.983917 62.486969,125.774689 64.000000,125.500000 
"/>
<path fill="none" opacity="1.000000" stroke="#000000" stroke-linecap="round" stroke-linejoin="round" stroke-width="2.000000"
	d="
M125.500000,26.500000 
	C124.887871,24.196966 127.679626,23.784977 128.054581,22.017296 
	C121.736580,20.015560 114.817574,25.025875 113.500000,32.500000 
"/>
<path fill="none" opacity="1.000000" stroke="#000000" stroke-linecap="round" stroke-linejoin="round" stroke-width="2.000000"
	d="
M227.500000,191.500000 
	C233.589157,192.735901 234.171082,193.932495 231.525650,199.512161 
	C231.172470,200.257065 230.754303,201.410309 231.076157,201.954987 
	C232.101456,203.690094 231.173645,204.903900 229.952560,205.377731 
	C229.040695,205.731567 227.488327,206.116333 226.512146,204.989487 
	C225.250076,203.532623 225.611542,202.000000 226.500000,200.500000 
"/>
<path fill="none" opacity="1.000000" stroke="#000000" stroke-linecap="round" stroke-linejoin="round" stroke-width="3.000000"
	d="
M221.500000,221.000000 
	C224.691940,226.698990 223.885498,228.628967 217.499054,230.496780 
	C213.614960,231.632736 209.794785,231.053238 206.000000,230.000000 
"/>
<path fill="none" opacity="1.000000" stroke="#000000" stroke-linecap="round" stroke-linejoin="round" stroke-width="2.000000"
	d="
M110.000000,151.000015 
	C104.166664,150.833344 98.333336,150.666672 92.500000,150.500015 
"/>
<path fill="none" opacity="1.000000" stroke="#000000" stroke-linecap="round" stroke-linejoin="round" stroke-width="3.000000"
	d="
M15.500000,197.500000 
	C14.931539,195.941223 14.670155,194.761780 16.449966,193.432983 
	C22.783487,188.704468 33.995316,190.823868 36.510059,197.496216 
	C37.913486,201.219910 36.611359,204.669083 33.000000,206.500000 
	C30.042442,205.544693 33.262493,200.985764 29.500000,200.500000 
"/>
<path fill="none" opacity="1.000000" stroke="#000000" stroke-linecap="round" stroke-linejoin="round" stroke-width="3.000000"
	d="
M156.000000,233.500000 
	C157.066711,234.899811 158.755615,234.856842 159.974747,234.428177 
	C166.925385,231.984116 173.248138,236.149887 179.989838,236.347183 
	C183.204285,236.441269 186.683548,236.497849 190.000000,237.000000 
"/>
<path fill="none" opacity="1.000000" stroke="#000000" stroke-linecap="round" stroke-linejoin="round" stroke-width="3.000000"
	d="
M117.000000,10.500000 
	C117.355362,12.150957 116.059143,12.451868 115.004425,13.008389 
	C109.691765,15.811584 106.560303,24.205366 107.815125,30.039762 
	C108.263603,32.125023 109.446709,34.666668 108.000000,37.000000 
"/>
<path fill="none" opacity="1.000000" stroke="#000000" stroke-linecap="round" stroke-linejoin="round" stroke-width="5.000000"
	d="
M43.500000,225.500000 
	C41.518661,233.714966 39.593002,232.243530 32.987240,231.343658 
	C28.044298,230.670334 25.519684,228.072495 24.500000,223.500000 
"/>
<path fill="none" opacity="1.000000" stroke="#000000" stroke-linecap="round" stroke-linejoin="round" stroke-width="3.000000"
	d="
M123.000000,182.500000 
	C121.585892,182.967957 121.170471,181.872757 120.481514,181.014847 
	C114.735474,173.859573 112.244080,173.966141 107.500000,181.500000 
"/>
<path fill="none" opacity="1.000000" stroke="#000000" stroke-linecap="round" stroke-linejoin="round" stroke-width="3.000000"
	d="
M61.500000,205.500000 
	C56.166668,203.317200 50.800838,204.500580 45.512672,205.563065 
	C42.532295,206.161911 42.376301,209.195312 41.500000,211.500000 
"/>
<path fill="none" opacity="1.000000" stroke="#000000" stroke-linecap="round" stroke-linejoin="round" stroke-width="4.000000"
	d="
M136.000000,35.000000 
	C135.080292,37.759270 135.768219,40.672253 134.670303,43.564648 
	C133.440063,46.805683 136.756195,47.120895 139.000000,47.750000 
"/>
<path fill="none" opacity="1.000000" stroke="#000000" stroke-linecap="round" stroke-linejoin="round" stroke-width="3.000000"
	d="
M159.000000,216.000000 
	C155.122467,214.679565 155.122467,214.679565 153.999817,219.499023 
	C156.389740,222.226929 157.723480,219.145782 159.500000,218.500000 
"/>
<path fill="none" opacity="1.000000" stroke="#000000" stroke-linecap="round" stroke-linejoin="round" stroke-width="6.000000"
	d="
M96.500000,66.500000 
	C100.207878,66.620003 103.994690,66.561722 107.457520,65.375931 
	C110.056305,64.486015 111.904907,65.701546 112.830009,67.111534 
	C113.849998,68.666138 112.811386,71.106361 110.964226,71.918648 
	C107.362160,73.502640 107.758194,76.182503 107.235420,79.457771 
	C106.118332,86.456604 107.803185,92.677170 110.018661,98.993454 
	C110.211342,99.542793 110.552773,100.186646 111.017982,100.470535 
	C114.822342,102.792130 117.600662,105.863823 119.635704,109.932114 
	C120.738770,112.137260 123.052238,113.457161 125.940788,114.223259 
	C129.197906,115.087120 132.138504,117.481293 134.942749,119.576614 
	C136.388947,120.657211 137.837784,121.458641 139.500000,122.000000 
"/>
<path fill="none" opacity="1.000000" stroke="#000000" stroke-linecap="round" stroke-linejoin="round" stroke-width="10.000000"
	d="
M113.500000,67.000000 
	C115.566025,66.012505 117.417305,65.358421 120.031174,65.825562 
	C124.778458,66.673973 129.481491,65.107765 133.990128,63.472786 
	C135.717422,62.846413 138.014481,62.263863 138.871826,63.583290 
	C141.407104,67.484993 144.751328,67.343040 148.500000,66.500000 
"/>
<path fill="none" opacity="1.000000" stroke="#000000" stroke-linecap="round" stroke-linejoin="round" stroke-width="2.000000"
	d="
M224.000000,196.000000 
	C218.348480,196.025833 216.618179,200.203568 215.000000,204.500000 
"/>
<path fill="none" opacity="1.000000" stroke="#000000" stroke-linecap="round" stroke-linejoin="round" stroke-width="3.000000"
	d="
M152.500000,214.000000 
	C150.413986,214.271896 151.345795,216.699387 149.996094,217.503937 
	C147.638733,217.194595 148.361267,213.805405 146.007034,213.492035 
	C144.163239,214.442535 146.163773,217.516907 143.500000,218.000000 
"/>
<path fill="none" opacity="1.000000" stroke="#000000" stroke-linecap="round" stroke-linejoin="round" stroke-width="4.000000"
	d="
M223.000000,191.000000 
	C218.935349,190.174179 216.520584,192.464798 214.500000,195.500000 
"/>
<path fill="none" opacity="1.000000" stroke="#000000" stroke-linecap="round" stroke-linejoin="round" stroke-width="3.000000"
	d="
M206.000000,210.500000 
	C205.328247,208.087921 205.179932,205.884125 201.530029,205.309341 
	C196.411118,204.503220 191.500000,202.904297 186.500000,205.500000 
"/>
<path fill="none" opacity="1.000000" stroke="#000000" stroke-linecap="round" stroke-linejoin="round" stroke-width="4.000000"
	d="
M211.500000,201.500000 
	C211.433090,202.633408 211.234528,204.029037 212.516830,204.448532 
	C215.111252,205.297241 214.829178,207.635818 215.500000,209.500000 
"/>
<path fill="none" opacity="1.000000" stroke="#000000" stroke-linecap="round" stroke-linejoin="round" stroke-width="2.000000"
	d="
M145.000000,148.500000 
	C147.140305,152.112030 150.655960,149.878830 153.500000,150.500000 
"/>
<path fill="none" opacity="1.000000" stroke="#000000" stroke-linecap="round" stroke-linejoin="round" stroke-width="3.000000"
	d="
M74.500000,118.500000 
	C75.209015,121.677979 75.150055,125.154610 78.000000,127.500000 
"/>
<path fill="none" opacity="1.000000" stroke="#000000" stroke-linecap="round" stroke-linejoin="round" stroke-width="2.000000"
	d="
M89.000000,216.500000 
	C85.883804,215.964508 83.413399,218.173615 80.226494,217.993378 
	C80.943459,220.686493 82.337708,221.605286 84.500000,221.500000 
"/>
<path fill="none" opacity="1.000000" stroke="#000000" stroke-linecap="round" stroke-linejoin="round" stroke-width="3.000000"
	d="
M101.000000,52.500000 
	C99.641769,55.704597 100.100121,59.181686 99.985695,62.584099 
	C95.302925,62.697079 94.165970,59.834034 93.500000,56.500000 
"/>
<path fill="none" opacity="1.000000" stroke="#000000" stroke-linecap="round" stroke-linejoin="round" stroke-width="4.000000"
	d="
M181.500000,228.500000 
	C181.104889,226.994003 183.128616,224.816132 180.211273,223.988953 
	C178.458633,224.198181 178.201401,225.802673 177.500000,227.000000 
"/>
<path fill="none" opacity="1.000000" stroke="#000000" stroke-linecap="round" stroke-linejoin="round" stroke-width="2.000000"
	d="
M53.000000,206.000000 
	C49.870354,207.868042 48.401138,210.358765 50.000000,214.000000 
"/>
<path fill="none" opacity="1.000000" stroke="#000000" stroke-linecap="round" stroke-linejoin="round" stroke-width="3.000000"
	d="
M98.000000,217.000000 
	C96.563667,214.642334 93.916702,215.971970 91.977463,215.047256 
	C90.774071,214.473404 89.732475,215.820099 89.608948,216.519257 
	C89.304085,218.244598 89.210777,220.221130 91.500000,221.000000 
"/>
<path fill="none" opacity="1.000000" stroke="#000000" stroke-linecap="round" stroke-linejoin="round" stroke-width="2.000000"
	d="
M142.500000,22.500000 
	C142.500000,27.500000 142.500000,32.500000 142.500000,37.500000 
"/>
<path fill="none" opacity="1.000000" stroke="#000000" stroke-linecap="round" stroke-linejoin="round" stroke-width="3.000000"
	d="
M42.500000,221.000000 
	C37.000717,223.321869 31.672890,222.900436 26.500000,220.000000 
"/>
<path fill="none" opacity="1.000000" stroke="#000000" stroke-linecap="round" stroke-linejoin="round" stroke-width="3.000000"
	d="
M110.000000,149.000000 
	C111.706375,151.588806 115.973846,151.824799 116.785240,151.214493 
	C119.412254,149.238464 121.994820,150.474091 124.500000,150.000000 
"/>
<path fill="none" opacity="1.000000" stroke="#000000" stroke-linecap="round" stroke-linejoin="round" stroke-width="2.000000"
	d="
M56.000000,235.000000 
	C56.149109,238.558502 58.965332,238.857193 61.500000,239.500000 
"/>
<path fill="none" opacity="1.000000" stroke="#000000" stroke-linecap="round" stroke-linejoin="round" stroke-width="5.000000"
	d="
M121.000000,66.500000 
	C121.086411,69.527435 120.516220,72.417763 121.764435,75.592613 
	C122.763687,78.134224 121.666672,81.500000 121.500000,84.500000 
"/>
<path fill="none" opacity="1.000000" stroke="#000000" stroke-linecap="round" stroke-linejoin="round" stroke-width="2.000000"
	d="
M106.500000,54.500000 
	C107.935791,56.632805 106.966766,59.280930 108.000000,61.500000 
"/>
<path fill="none" opacity="1.000000" stroke="#000000" stroke-linecap="round" stroke-linejoin="round" stroke-width="2.000000"
	d="
M212.500000,193.500000 
	C211.692734,195.767487 209.354431,197.706909 211.000000,200.500000 
"/>
<path fill="none" opacity="1.000000" stroke="#000000" stroke-linecap="round" stroke-linejoin="round" stroke-width="2.000000"
	d="
M141.000000,51.500000 
	C139.239609,54.690628 141.625183,58.295853 140.000000,61.500000 
"/>
<path fill="none" opacity="1.000000" stroke="#000000" stroke-linecap="round" stroke-linejoin="round" stroke-width="2.000000"
	d="
M204.500000,223.500000 
	C206.116791,225.649979 204.462524,228.186813 205.368393,230.550446 
	C205.872696,231.866364 206.064651,233.012451 207.500000,233.500000 
"/>
<path fill="none" opacity="1.000000" stroke="#000000" stroke-linecap="round" stroke-linejoin="round" stroke-width="2.000000"
	d="
M81.500000,223.000000 
	C75.772354,226.768280 69.819923,227.839081 63.500000,224.500000 
"/>
<path fill="none" opacity="1.000000" stroke="#000000" stroke-linecap="round" stroke-linejoin="round" stroke-width="2.000000"
	d="
M193.500000,231.500000 
	C193.235260,235.468109 190.849243,237.845261 187.500000,239.500000 
"/>
<path fill="none" opacity="1.000000" stroke="#000000" stroke-linecap="round" stroke-linejoin="round" stroke-width="2.000000"
	d="
M116.000000,42.500000 
	C117.409920,44.666668 115.369209,46.833332 116.000000,49.000000 
"/>
<path fill="none" opacity="1.000000" stroke="#000000" stroke-linecap="round" stroke-linejoin="round" stroke-width="2.000000"
	d="
M110.500000,58.500000 
	C110.500000,60.666668 110.500000,62.833332 110.500000,65.000000 
"/>
<path fill="none" opacity="1.000000" stroke="#000000" stroke-linecap="round" stroke-linejoin="round" stroke-width="2.000000"
	d="
M114.500000,58.500000 
	C115.000000,60.500000 115.500000,62.500000 116.000000,64.500000 
"/>
<path fill="none" opacity="1.000000" stroke="#000000" stroke-linecap="round" stroke-linejoin="round" stroke-width="2.000000"
	d="
M129.500000,49.000000 
	C127.500000,49.805641 125.500000,49.805641 123.500000,49.000000 
"/>
<path fill="none" opacity="1.000000" stroke="#000000" stroke-linecap="round" stroke-linejoin="round" stroke-width="4.000000"
	d="
M122.500000,114.000000 
	C118.995377,117.059555 122.560928,121.725967 119.945930,125.073296 
	C121.269051,126.192856 122.841980,126.474060 124.500000,126.500000 
"/>
<path fill="none" opacity="1.000000" stroke="#000000" stroke-linecap="round" stroke-linejoin="round" stroke-width="3.000000"
	d="
M75.500000,225.500000 
	C73.868301,224.465027 74.917091,220.749573 71.500000,221.500000 
"/>
<path fill="none" opacity="1.000000" stroke="#000000" stroke-linecap="round" stroke-linejoin="round" stroke-width="5.000000"
	d="
M145.000000,145.500000 
	C142.945251,148.223404 139.544632,148.989151 137.000000,151.000000 
"/>
<path fill="none" opacity="1.000000" stroke="#000000" stroke-linecap="round" stroke-linejoin="round" stroke-width="3.000000"
	d="
M129.500000,58.500000 
	C129.666656,60.333332 129.833328,62.166668 130.000000,64.000000 
"/>
<path fill="none" opacity="1.000000" stroke="#000000" stroke-linecap="round" stroke-linejoin="round" stroke-width="3.000000"
	d="
M140.500000,216.500000 
	C140.536591,215.344711 140.368713,214.312103 139.394516,214.063644 
	C136.630325,213.618210 138.058212,218.299835 135.000000,217.000000 
"/>
<path fill="none" opacity="1.000000" stroke="#000000" stroke-linecap="round" stroke-linejoin="round" stroke-width="3.000000"
	d="
M119.000000,59.500000 
	C119.000000,61.333332 119.000000,63.166668 119.000000,65.000000 
"/>
<path fill="none" opacity="1.000000" stroke="#000000" stroke-linecap="round" stroke-linejoin="round" stroke-width="2.000000"
	d="
M130.000000,34.500000 
	C131.894821,36.610264 128.834442,39.428413 131.000000,41.500000 
"/>
<path fill="none" opacity="1.000000" stroke="#000000" stroke-linecap="round" stroke-linejoin="round" stroke-width="3.000000"
	d="
M51.000000,214.500000 
	C52.015408,219.901199 52.014645,219.874786 47.000568,220.019653 
	C45.830063,220.053467 44.666668,220.333328 43.500000,220.500000 
"/>
<path fill="none" opacity="1.000000" stroke="#000000" stroke-linecap="round" stroke-linejoin="round" stroke-width="2.000000"
	d="
M177.500000,116.500000 
	C177.102890,118.034294 178.639008,120.213005 176.000000,121.000000 
"/>
<path fill="none" opacity="1.000000" stroke="#000000" stroke-linecap="round" stroke-linejoin="round" stroke-width="2.000000"
	d="
M130.000000,166.500000 
	C130.500000,168.166672 131.000000,169.833328 131.500000,171.500000 
"/>
<path fill="none" opacity="1.000000" stroke="#000000" stroke-linecap="round" stroke-linejoin="round" stroke-width="2.000000"
	d="
M129.500000,33.500000 
	C129.129364,31.552231 128.844269,29.484680 126.000000,31.000000 
"/>
<path fill="none" opacity="1.000000" stroke="#000000" stroke-linecap="round" stroke-linejoin="round" stroke-width="2.000000"
	d="
M114.000000,164.500000 
	C113.198730,166.103210 113.589600,167.825623 113.500000,169.500000 
"/>
<path fill="none" opacity="1.000000" stroke="#000000" stroke-linecap="round" stroke-linejoin="round" stroke-width="2.000000"
	d="
M196.000000,205.000000 
	C195.212997,207.639008 193.034302,206.102890 191.500000,206.500000 
"/>
<path fill="none" opacity="1.000000" stroke="#000000" stroke-linecap="round" stroke-linejoin="round" stroke-width="3.000000"
	d="
M116.000000,34.500000 
	C115.477020,37.531929 113.699188,40.285004 114.000000,43.500000 
"/>
<path fill="none" opacity="1.000000" stroke="#000000" stroke-linecap="round" stroke-linejoin="round" stroke-width="2.000000"
	d="
M212.500000,219.000000 
	C210.922531,217.941299 209.156326,218.770111 207.500000,218.500000 
"/>
<path fill="none" opacity="1.000000" stroke="#000000" stroke-linecap="round" stroke-linejoin="round" stroke-width="2.000000"
	d="
M75.000000,126.500000 
	C73.941299,128.077469 74.770119,129.843674 74.500000,131.500000 
"/>
<path fill="none" opacity="1.000000" stroke="#000000" stroke-linecap="round" stroke-linejoin="round" stroke-width="2.000000"
	d="
M153.500000,64.500000 
	C152.281815,62.141697 151.485840,59.331692 147.929871,62.419228 
	C145.889862,64.190506 145.433395,62.291592 145.500000,60.500000 
"/>
<path fill="none" opacity="1.000000" stroke="#000000" stroke-linecap="round" stroke-linejoin="round" stroke-width="3.000000"
	d="
M106.000000,181.750000 
	C107.050774,181.505737 108.117355,180.905579 107.600670,183.024551 
	C107.350876,184.048981 106.527557,185.333328 107.500000,186.500000 
"/>
<path fill="none" opacity="1.000000" stroke="#000000" stroke-linecap="round" stroke-linejoin="round" stroke-width="3.000000"
	d="
M132.000000,19.500000 
	C135.401672,21.163219 136.119324,25.007221 138.500000,27.500000 
"/>
<path fill="none" opacity="1.000000" stroke="#000000" stroke-linecap="round" stroke-linejoin="round" stroke-width="2.000000"
	d="
M124.500000,139.500000 
	C123.000000,139.500000 121.500000,139.500000 120.000000,139.500000 
"/>
<path fill="none" opacity="1.000000" stroke="#000000" stroke-linecap="round" stroke-linejoin="round" stroke-width="2.000000"
	d="
M165.500000,126.500000 
	C165.274277,129.451462 166.908035,128.683929 168.500000,128.000000 
"/>
<path fill="none" opacity="1.000000" stroke="#000000" stroke-linecap="round" stroke-linejoin="round" stroke-width="6.000000"
	d="
M120.500000,126.500000 
	C120.677307,132.593781 120.049065,138.598038 118.500000,144.500000 
"/>
<path fill="none" opacity="1.000000" stroke="#000000" stroke-linecap="round" stroke-linejoin="round" stroke-width="2.000000"
	d="
M214.500000,216.500000 
	C214.500000,218.166672 214.500000,219.833328 214.500000,221.500000 
"/>
<path fill="none" opacity="1.000000" stroke="#000000" stroke-linecap="round" stroke-linejoin="round" stroke-width="2.000000"
	d="
M185.000000,123.000000 
	C183.655960,123.994644 185.690582,126.678627 183.000000,127.000000 
"/>
<path fill="none" opacity="1.000000" stroke="#000000" stroke-linecap="round" stroke-linejoin="round" stroke-width="2.000000"
	d="
M109.000000,163.000000 
	C108.833328,164.500000 108.666664,166.000000 108.500000,167.500000 
"/>
<path fill="none" opacity="1.000000" stroke="#000000" stroke-linecap="round" stroke-linejoin="round" stroke-width="2.000000"
	d="
M124.500000,137.500000 
	C123.166664,137.333328 121.833336,137.166672 120.500000,137.000000 
"/>
<path fill="none" opacity="1.000000" stroke="#000000" stroke-linecap="round" stroke-linejoin="round" stroke-width="2.000000"
	d="
M128.500000,109.500000 
	C127.191269,109.668518 125.450294,108.828468 125.000000,111.000000 
"/>
<path fill="none" opacity="1.000000" stroke="#000000" stroke-linecap="round" stroke-linejoin="round" stroke-width="4.000000"
	d="
M121.250000,86.000000 
	C121.038300,92.001595 122.469887,98.071663 120.500000,104.000000 
"/>
<path fill="none" opacity="1.000000" stroke="#000000" stroke-linecap="round" stroke-linejoin="round" stroke-width="2.000000"
	d="
M104.500000,83.500000 
	C104.505905,84.940506 104.363724,86.479736 106.500000,86.500000 
"/>
<path fill="none" opacity="1.000000" stroke="#000000" stroke-linecap="round" stroke-linejoin="round" stroke-width="2.000000"
	d="
M126.500000,227.000000 
	C125.278084,225.941986 123.820641,226.768204 122.500000,226.500000 
"/>
<path fill="none" opacity="1.000000" stroke="#000000" stroke-linecap="round" stroke-linejoin="round" stroke-width="2.000000"
	d="
M159.500000,230.500000 
	C161.810654,231.025742 160.753082,232.898773 161.000000,234.250000 
"/>
<path fill="none" opacity="1.000000" stroke="#000000" stroke-linecap="round" stroke-linejoin="round" stroke-width="2.000000"
	d="
M135.499985,58.500000 
	C135.333328,59.833332 135.166656,61.166664 134.999985,62.500000 
"/>
<path fill="none" opacity="1.000000" stroke="#000000" stroke-linecap="round" stroke-linejoin="round" stroke-width="6.000000"
	d="
M146.500000,136.750000 
	C144.078537,139.150650 146.584091,142.447113 144.999908,145.000015 
	C143.833328,144.666718 142.666656,144.333359 141.500000,144.000000 
"/>
<path fill="none" opacity="1.000000" stroke="#000000" stroke-linecap="round" stroke-linejoin="round" stroke-width="2.000000"
	d="
M145.000000,141.500000 
	C143.833328,141.500000 142.666672,141.500000 141.500000,141.500000 
"/>
<path fill="none" opacity="1.000000" stroke="#000000" stroke-linecap="round" stroke-linejoin="round" stroke-width="2.000000"
	d="
M121.000000,134.500000 
	C122.166664,134.500000 123.333336,134.500000 124.500000,134.500000 
"/>
<path fill="none" opacity="1.000000" stroke="#000000" stroke-linecap="round" stroke-linejoin="round" stroke-width="3.000000"
	d="
M124.500000,104.000000 
	C122.480675,105.291054 119.986504,103.495621 118.000000,105.000000 
"/>
<path fill="none" opacity="1.000000" stroke="#000000" stroke-linecap="round" stroke-linejoin="round" stroke-width="2.000000"
	d="
M198.000000,222.500000 
	C199.166672,222.500000 200.333328,222.500000 201.500000,222.500000 
"/>
<path fill="none" opacity="1.000000" stroke="#000000" stroke-linecap="round" stroke-linejoin="round" stroke-width="2.000000"
	d="
M124.500000,132.500000 
	C123.333336,132.333328 122.166664,132.166656 121.000000,132.000000 
"/>
<path fill="none" opacity="1.000000" stroke="#000000" stroke-linecap="round" stroke-linejoin="round" stroke-width="2.000000"
	d="
M116.000000,168.000000 
	C115.833336,169.166672 115.666664,170.333328 115.500000,171.500000 
"/>
<path fill="none" opacity="1.000000" stroke="#000000" stroke-linecap="round" stroke-linejoin="round" stroke-width="3.000000"
	d="
M125.500000,32.000000 
	C123.425278,32.137913 121.587425,32.631142 120.785942,35.234440 
	C122.057686,36.826950 124.235901,35.292305 125.500000,36.500000 
"/>
<path fill="none" opacity="1.000000" stroke="#000000" stroke-linecap="round" stroke-linejoin="round" stroke-width="2.000000"
	d="
M34.000000,228.500000 
	C35.166668,228.500000 36.333332,228.500000 37.500000,228.500000 
"/>
<path fill="none" opacity="1.000000" stroke="#000000" stroke-linecap="round" stroke-linejoin="round" stroke-width="2.000000"
	d="
M136.500000,121.500000 
	C136.056580,122.888596 136.053223,124.151459 137.500000,125.000000 
"/>
<path fill="none" opacity="1.000000" stroke="#000000" stroke-linecap="round" stroke-linejoin="round" stroke-width="2.000000"
	d="
M111.500000,90.499992 
	C110.333336,90.666656 109.166664,90.833328 108.000000,90.999992 
"/>
<path fill="none" opacity="1.000000" stroke="#000000" stroke-linecap="round" stroke-linejoin="round" stroke-width="3.000000"
	d="
M125.500000,84.500000 
	C123.203728,83.055679 121.592094,85.719246 119.500000,85.500000 
"/>
<path fill="none" opacity="1.000000" stroke="#000000" stroke-linecap="round" stroke-linejoin="round" stroke-width="2.000000"
	d="
M122.000000,73.500000 
	C123.166664,73.500000 124.333336,73.500000 125.500000,73.500000 
"/>
<path fill="none" opacity="1.000000" stroke="#000000" stroke-linecap="round" stroke-linejoin="round" stroke-width="3.000000"
	d="
M139.500000,35.000000 
	C137.702545,34.909260 135.712524,35.126621 135.500000,32.500000 
"/>
<path fill="none" opacity="1.000000" stroke="#000000" stroke-linecap="round" stroke-linejoin="round" stroke-width="3.000000"
	d="
M130.500000,24.500000 
	C129.294373,28.490911 125.948067,26.487930 123.500000,27.000000 
"/>
<path fill="none" opacity="1.000000" stroke="#000000" stroke-linecap="round" stroke-linejoin="round" stroke-width="2.000000"
	d="
M226.500000,189.500015 
	C225.487793,189.978439 224.475586,190.456863 223.332336,190.997223 
	C224.066101,193.198456 224.783051,195.349228 225.500000,197.500000 
"/>
<path fill="none" opacity="1.000000" stroke="#000000" stroke-linecap="round" stroke-linejoin="round" stroke-width="3.000000"
	d="
M161.500000,216.500000 
	C163.509109,218.049484 164.449600,220.311386 165.500000,222.500000 
"/>
<path fill="none" opacity="1.000000" stroke="#000000" stroke-linecap="round" stroke-linejoin="round" stroke-width="2.000000"
	d="
M118.500000,49.000000 
	C116.461357,49.345421 114.816978,51.267906 112.500000,50.500000 
"/>
<path fill="none" opacity="1.000000" stroke="#000000" stroke-linecap="round" stroke-linejoin="round" stroke-width="1.000000"
	d="
M138.000000,50.000000 
	C138.333344,50.666664 138.666672,51.333332 139.000000,52.000000 
"/>
<path fill="none" opacity="1.000000" stroke="#000000" stroke-linecap="round" stroke-linejoin="round" stroke-width="2.000000"
	d="
M17.000000,194.000000 
	C17.649446,195.277298 21.914726,195.198639 18.500000,198.000000 
"/>
<path fill="none" opacity="1.000000" stroke="#000000" stroke-linecap="round" stroke-linejoin="round" stroke-width="2.000000"
	d="
M139.500000,67.000000 
	C139.397308,67.781982 137.462021,67.682327 138.506775,68.994606 
	C139.802490,70.622093 137.910431,70.051399 137.500000,70.500000 
"/>
</svg>